<svg viewBox="0 0 640 400" xmlns="http://www.w3.org/2000/svg" role="img" aria-label="Shopify OS 2.0 Migration preview">
  <defs>
    <linearGradient id="og" x1="0" y1="0" x2="1" y2="1">
      <stop offset="0" stop-color="#fdeee9"/>
      <stop offset="1" stop-color="#f8d9ce"/>
    </linearGradient>
  </defs>
  <rect width="640" height="400" fill="url(#og)"/>
  <!-- storefront frame -->
  <rect x="72" y="60" width="496" height="280" rx="10" fill="#ffffff" stroke="#eab9a6" stroke-width="2"/>
  <rect x="72" y="60" width="496" height="34" rx="10" fill="#fbe6df"/>
  <rect x="96" y="73" width="120" height="9" rx="4" fill="#d98e74"/>
  <!-- hero section block -->
  <rect x="96" y="116" width="448" height="92" rx="8" fill="#f6d6cb"/>
  <rect x="120" y="140" width="150" height="13" rx="4" fill="#9a4a32"/>
  <rect x="120" y="164" width="220" height="8" rx="4" fill="#cf8a72"/>
  <rect x="120" y="180" width="90" height="22" rx="6" fill="#e0633f"/>
  <!-- section blocks (drag-and-drop) -->
  <rect x="96" y="224" width="138" height="96" rx="8" fill="#fbe6df" stroke="#eab9a6" stroke-width="1.5"/>
  <rect x="251" y="224" width="138" height="96" rx="8" fill="#fbe6df" stroke="#eab9a6" stroke-width="1.5"/>
  <rect x="406" y="224" width="138" height="96" rx="8" fill="#fbe6df" stroke="#eab9a6" stroke-width="1.5"/>
  <rect x="116" y="244" width="98" height="8" rx="4" fill="#cf8a72"/>
  <rect x="271" y="244" width="98" height="8" rx="4" fill="#cf8a72"/>
  <rect x="426" y="244" width="98" height="8" rx="4" fill="#cf8a72"/>
  <rect x="116" y="262" width="70" height="8" rx="4" fill="#e2b8a8"/>
  <rect x="271" y="262" width="70" height="8" rx="4" fill="#e2b8a8"/>
  <rect x="426" y="262" width="70" height="8" rx="4" fill="#e2b8a8"/>
  <text x="320" y="372" text-anchor="middle" font-family="system-ui, sans-serif" font-size="17" font-weight="700" fill="#9a4a32">Online Store 2.0 · Liquid Sections</text>
</svg>
